<svg version="1.1" xmlns="http://www.w3.org/2000/svg" viewBox="0 0 1000 1000" enable-background="new 0 0 1000 1000" xml:space="preserve">
<circle fill="#F16980" cx="500" cy="499.999" r="32.692"></circle>
<path fill="#6888AE" d="M500,107.692c-216.666,0-392.308,175.642-392.308,392.308c0,216.667,175.642,392.309,392.308,392.309
	S892.309,716.666,892.309,500H925c0,234.72-190.28,425-425,425C265.279,925,75,734.72,75,500C75,265.279,265.279,75,500,75V107.692z
	"></path>
<path fill="#5C95CF" d="M500,173.077c180.555,0,326.923,146.368,326.923,326.923c0,180.556-146.368,326.922-326.923,326.922
	c-180.553,0-326.923-146.366-326.923-326.922h-32.692c0,198.61,161.005,359.616,359.615,359.616
	c198.609,0,359.616-161.006,359.616-359.616c0-198.61-161.007-359.615-359.616-359.615V173.077z"></path>
<path fill="#7BA5D7" d="M238.461,500c0-144.444,117.095-261.54,261.539-261.54c144.444,0,261.539,117.096,261.539,261.54
	c0,144.445-117.095,261.538-261.539,261.538v32.692c162.498,0,294.23-131.731,294.23-294.23c0-162.5-131.732-294.231-294.23-294.231
	C337.501,205.769,205.77,337.5,205.77,500H238.461z"></path>
<path fill="#99B7E0" d="M500,696.152c-108.332,0-196.154-87.821-196.154-196.153c0-108.333,87.822-196.155,196.154-196.155
	S696.153,391.667,696.153,500h32.693c0-126.388-102.458-228.847-228.847-228.847c-126.388,0-228.846,102.458-228.846,228.847
	S373.612,728.846,500,728.846V696.152z"></path>
<path fill="#B9CCEA" d="M630.77,500c0,72.22-58.548,130.769-130.77,130.769c-72.222,0-130.77-58.549-130.77-130.769
	c0-72.222,58.547-130.77,130.77-130.77v-32.692c-90.277,0-163.461,73.185-163.461,163.462S409.723,663.46,500,663.46
	c90.277,0,163.461-73.183,163.461-163.46H630.77z"></path>
<path fill="#DAE3F3" d="M500,434.614c36.11,0,65.384,29.274,65.384,65.385c0,36.11-29.273,65.383-65.384,65.383
	c-36.109,0-65.385-29.273-65.385-65.383h-32.692c0,54.166,43.911,98.077,98.077,98.077c54.168,0,98.077-43.911,98.077-98.077
	c0-54.167-43.909-98.078-98.077-98.078V434.614z"></path>
</svg>
