<?xml version="1.0" encoding="utf-8"?>
<!-- Generator: Adobe Illustrator 16.0.0, SVG Export Plug-In . SVG Version: 6.00 Build 0)  -->
<!DOCTYPE svg PUBLIC "-//W3C//DTD SVG 1.1//EN" "http://www.w3.org/Graphics/SVG/1.1/DTD/svg11.dtd">
<svg version="1.1"
	 id="svg2" xmlns:dc="http://purl.org/dc/elements/1.1/" xmlns:cc="http://creativecommons.org/ns#" xmlns:rdf="http://www.w3.org/1999/02/22-rdf-syntax-ns#" xmlns:svg="http://www.w3.org/2000/svg"
	 xmlns="http://www.w3.org/2000/svg" xmlns:xlink="http://www.w3.org/1999/xlink" x="0px" y="0px" width="108.702px"
	 height="116.264px" viewBox="2.429 2.434 108.702 116.264" enable-background="new 2.429 2.434 108.702 116.264"
	 xml:space="preserve">
<g id="g10" transform="matrix(1.25,0,0,-1.25,0,121.99995)">
	<g id="g4802" transform="matrix(2.0514026,0,0,2.0514026,-84.316828,-1516.2286)">
		<g id="g4742">
			<path id="path260" fill="#E84E0F" d="M71.519,768.187l1.556,0.917c0.274,0.162,0.324,0.303,0.322,0.332
				c0,0.014-0.039,0.069-0.152,0.118l-29.236,14.943c-0.267,0.138-0.474,0.208-0.618,0.208c-0.08,0-0.15-0.022-0.24-0.075
				l-0.062-0.038c-0.289-0.169-0.425-0.277-0.442-0.896l-0.595-32.503c-0.012-0.155,0.015-0.211,0.026-0.223
				c0.014-0.018,0.123-0.072,0.449,0.118l1.554,0.919c0.453,0.266,0.448,0.589,0.446,0.694l0.398,28.753l25.752-13.307
				C71.014,767.953,71.335,768.078,71.519,768.187"/>
			<path id="path262" fill="#E84E0F" d="M78.717,757.399l-1.59,0.857c-0.187,0.101-0.546,0.198-0.829,0.022L51.494,743.74
				l-1.94,28.922c-0.008,0.308-0.167,0.536-0.473,0.701l-1.59,0.857c-0.19,0.104-0.315,0.118-0.373,0.118
				c-0.047,0-0.073-0.01-0.079-0.017c-0.011-0.012-0.035-0.071-0.02-0.191l2.342-32.748c0.041-0.647,0.196-0.731,0.333-0.805
				l0.067-0.035c0.393-0.213,0.532-0.171,0.988,0.089l28.122,16.309c0.139,0.07,0.177,0.125,0.178,0.142
				C79.05,757.112,78.995,757.249,78.717,757.399"/>
			<path id="path264" fill="#E84E0F" d="M83.912,767.925L56.658,785.65c-0.103,0.076-0.163,0.096-0.194,0.096
				c-0.038,0-0.137-0.131-0.145-0.444l-0.047-1.804c-0.011-0.526,0.265-0.693,0.355-0.749l24.176-15.566l-24.928-14.792
				c-0.27-0.146-0.402-0.392-0.411-0.74l-0.046-1.803c-0.006-0.243,0.049-0.388,0.098-0.44l0.026-0.011
				c0.016,0,0.074,0.005,0.168,0.069l28.158,16.883c0.56,0.331,0.566,0.512,0.568,0.659l0.003,0.083
				C84.447,767.412,84.428,767.583,83.912,767.925"/>
		</g>
	</g>
</g>
</svg>
